<svg xmlns="http://www.w3.org/2000/svg" width="16" height="16"><style type="text/css">.icon-canvas-transparent{opacity:0;fill:#F6F6F6;} .icon-white{fill:#FFFFFF;} .icon-vso-bg{fill:#656565;}</style><path class="icon-canvas-transparent" d="M16 16h-16v-16h16v16z" id="canvas"/><path class="icon-white" d="M0 0h16v15h-16v-15z" id="outline"/><path class="icon-vso-bg" d="M1 1v13h14v-13h-14zm1 1h12l.016 6.871-2.016-1.871-3 2-4.024-3.909-2.976 3.537v-6.628zm12 11.019l-12-.019v-2.329l3.006-3.628 3.996 3.957 2.982-2 2.016 1.604v2.415zm-4.5-10.019c.828 0 1.5.672 1.5 1.5s-.672 1.5-1.5 1.5c-.829 0-1.5-.671-1.5-1.5s.671-1.5 1.5-1.5z" id="iconBg"/><path class="icon-white" d="M14 13h-12v-2.329l3.006-3.628 3.996 3.957 2.982-2 2.016 1.549v2.451zm.016-4.114l-2.016-1.883-3 2.002-4.024-3.906-2.976 3.544v-6.643h12l.016 6.886zm-3.016-4.386c0-.828-.672-1.5-1.5-1.5-.829 0-1.5.672-1.5 1.5s.671 1.5 1.5 1.5c.828 0 1.5-.671 1.5-1.5z" id="iconFg"/></svg>